<svg xmlns="http://www.w3.org/2000/svg" xmlns:xlink="http://www.w3.org/1999/xlink" viewBox="0 0 508.61 500"><defs><style>.cls-1,.cls-32,.cls-33,.cls-34,.cls-37,.cls-43,.cls-44,.cls-45,.cls-46,.cls-57,.cls-58{fill:none;}.cls-2{isolation:isolate;}.cls-3,.cls-54,.cls-60{fill:#fff;}.cls-4{clip-path:url(#clip-path);}.cls-5{clip-path:url(#clip-path-2);}.cls-6{fill:#f4e9ff;}.cls-7{fill:url(#linear-gradient);}.cls-8{fill:url(#linear-gradient-2);}.cls-9{fill:url(#linear-gradient-3);}.cls-10{fill:url(#linear-gradient-4);}.cls-11{opacity:0.24;}.cls-11,.cls-22,.cls-25{mix-blend-mode:overlay;}.cls-12{fill:url(#linear-gradient-5);}.cls-13{fill:url(#linear-gradient-6);}.cls-14{fill:url(#linear-gradient-7);}.cls-15{fill:url(#linear-gradient-8);}.cls-16{fill:url(#linear-gradient-9);}.cls-17{fill:url(#linear-gradient-10);}.cls-18{fill:url(#linear-gradient-11);}.cls-19{fill:url(#linear-gradient-12);}.cls-20{fill:url(#linear-gradient-13);}.cls-21{fill:url(#linear-gradient-14);}.cls-22{opacity:0.57;}.cls-23{fill:url(#linear-gradient-15);}.cls-24{fill:url(#linear-gradient-16);}.cls-25{opacity:0.46;}.cls-26{fill:url(#linear-gradient-17);}.cls-27{fill:url(#linear-gradient-18);}.cls-28{fill:url(#linear-gradient-19);}.cls-29{fill:url(#linear-gradient-20);}.cls-30{fill:url(#linear-gradient-21);}.cls-31{fill:url(#linear-gradient-22);}.cls-32,.cls-33,.cls-34,.cls-43,.cls-45,.cls-46,.cls-58{stroke:#fff;}.cls-32,.cls-33,.cls-34,.cls-37,.cls-43,.cls-45,.cls-57,.cls-58{stroke-miterlimit:10;}.cls-32{stroke-width:2.55px;}.cls-33{stroke-width:3.7px;}.cls-34,.cls-43{stroke-width:2.78px;}.cls-35{fill:#ca14cd;}.cls-36{fill:#ff46ea;}.cls-37,.cls-57{stroke:#fd8cff;}.cls-37,.cls-43,.cls-44,.cls-46,.cls-57{stroke-linecap:round;}.cls-37{stroke-width:6.6px;}.cls-38{fill:#c8e6eb;}.cls-39{fill:#1e2d64;}.cls-40{fill:#0f1446;}.cls-41{fill:#87afb9;}.cls-42{fill:#fd8cff;}.cls-44{stroke:#1e2d64;}.cls-44,.cls-46{stroke-linejoin:round;}.cls-44,.cls-45,.cls-46{stroke-width:5.56px;}.cls-47{fill:#3d00aa;}.cls-48{fill:#b790ff;}.cls-49{fill:#925ef0;}.cls-50{fill:#f586ff;}.cls-51{fill:#37008c;}.cls-52,.cls-53,.cls-54{opacity:0.51;mix-blend-mode:lighten;}.cls-52{fill:url(#linear-gradient-23);}.cls-53{fill:url(#linear-gradient-24);}.cls-55{fill:#cdbbf6;}.cls-56{fill:#4307a1;}.cls-57,.cls-58{stroke-width:4.29px;}.cls-59{fill:#6c9baa;}.cls-60{font-size:22px;font-family:Gilroy-ExtraBold, Gilroy ExtraBold;font-weight:700;}</style><clipPath id="clip-path"><path class="cls-1" d="M186.16,45.94C165.85,36.47,101.62,33.22,83,58c-26.75,35.61-11,63.6-21.74,97.86S5.8,225.53,50,266c23.17,21.21.52,46.85,20.51,51.85s5.42,43.55,31.4,58.52c42.11,24.27,8.57,46.39,54.25,54.25,42.21,7.25,59.95-24.27,99.92-16.42S351,447.06,378.16,427.08s34.77-53.35,33.54-71.38c-2.14-31.4,1.43-54.24,35-73.51,38.12-21.9,33.55-93.5,5.71-124.9S423.84,113.75,416,90.91,345,17,293.94,59.5C269.37,80,218.28,60.93,186.16,45.94Z"/></clipPath><clipPath id="clip-path-2"><rect class="cls-1" x="18.68" y="17.33" width="463.03" height="463.03"/></clipPath><linearGradient id="linear-gradient" x1="364.99" y1="341.49" x2="339.67" y2="439.66" gradientUnits="userSpaceOnUse"><stop offset="0" stop-color="#b700ff"/><stop offset="1" stop-color="#2900bc"/></linearGradient><linearGradient id="linear-gradient-2" x1="381.04" y1="443.19" x2="318.53" y2="352.43" xlink:href="#linear-gradient"/><linearGradient id="linear-gradient-3" x1="26.65" y1="238.38" x2="59.59" y2="238.38" xlink:href="#linear-gradient"/><linearGradient id="linear-gradient-4" x1="37.78" y1="241.25" x2="53.33" y2="241.25" xlink:href="#linear-gradient"/><linearGradient id="linear-gradient-5" x1="103.92" y1="364.59" x2="146.88" y2="364.59" xlink:href="#linear-gradient"/><linearGradient id="linear-gradient-6" x1="112.62" y1="377.7" x2="132.73" y2="377.7" xlink:href="#linear-gradient"/><linearGradient id="linear-gradient-7" x1="81.67" y1="335.92" x2="114.61" y2="335.92" xlink:href="#linear-gradient"/><linearGradient id="linear-gradient-8" x1="92.8" y1="338.79" x2="108.34" y2="338.79" xlink:href="#linear-gradient"/><linearGradient id="linear-gradient-9" x1="328.95" y1="394.62" x2="361.88" y2="394.62" xlink:href="#linear-gradient"/><linearGradient id="linear-gradient-10" x1="340.07" y1="397.49" x2="355.62" y2="397.49" xlink:href="#linear-gradient"/><linearGradient id="linear-gradient-11" x1="368.89" y1="289.4" x2="424.12" y2="289.4" gradientTransform="translate(69.01 -48.4) rotate(7.84)" gradientUnits="userSpaceOnUse"><stop offset="0" stop-color="#b700ff"/><stop offset="1" stop-color="#11004e"/></linearGradient><linearGradient id="linear-gradient-12" x1="431.29" y1="241.21" x2="374.75" y2="328.59" xlink:href="#linear-gradient-11"/><linearGradient id="linear-gradient-13" x1="375.96" y1="368.61" x2="418.92" y2="368.61" gradientUnits="userSpaceOnUse"><stop offset="0" stop-color="#ff4799"/><stop offset="1" stop-color="#9e00c6"/></linearGradient><linearGradient id="linear-gradient-14" x1="384.66" y1="381.72" x2="404.78" y2="381.72" gradientUnits="userSpaceOnUse"><stop offset="0" stop-color="#c33675"/><stop offset="1" stop-color="#6e008a"/></linearGradient><linearGradient id="linear-gradient-15" x1="38.86" y1="334.88" x2="105.86" y2="334.88" gradientTransform="translate(8.72 -0.2) rotate(1.12)" gradientUnits="userSpaceOnUse"><stop offset="0" stop-color="#ff4799"/><stop offset="1" stop-color="#540069"/></linearGradient><linearGradient id="linear-gradient-16" x1="114.56" y1="276.42" x2="45.98" y2="382.41" gradientTransform="translate(8.72 -0.2) rotate(1.12)" xlink:href="#linear-gradient-14"/><linearGradient id="linear-gradient-17" x1="174.31" y1="327.09" x2="149" y2="425.25" xlink:href="#linear-gradient-13"/><linearGradient id="linear-gradient-18" x1="190.36" y1="428.79" x2="127.85" y2="338.03" xlink:href="#linear-gradient-14"/><linearGradient id="linear-gradient-19" x1="351.58" y1="380.28" x2="384.52" y2="380.28" xlink:href="#linear-gradient-13"/><linearGradient id="linear-gradient-20" x1="362.71" y1="383.15" x2="378.26" y2="383.15" xlink:href="#linear-gradient-14"/><linearGradient id="linear-gradient-21" x1="390.53" y1="61.71" x2="519.25" y2="61.71" gradientTransform="matrix(0.9, -0.43, 0.43, 0.9, 1.62, 195.81)" xlink:href="#linear-gradient"/><linearGradient id="linear-gradient-22" x1="297.45" y1="242.75" x2="375" y2="242.75" gradientUnits="userSpaceOnUse"><stop offset="0" stop-color="#b700ff"/><stop offset="1" stop-color="#2300a1"/></linearGradient><linearGradient id="linear-gradient-23" x1="244.22" y1="165.48" x2="183.98" y2="225.11" gradientUnits="userSpaceOnUse"><stop offset="0" stop-color="#fff"/><stop offset="1" stop-color="#fff" stop-opacity="0"/></linearGradient><linearGradient id="linear-gradient-24" x1="267.62" y1="189.12" x2="207.38" y2="248.75" xlink:href="#linear-gradient-23"/></defs><title>2149559</title><g class="cls-2"><g id="BACKGROUND"><rect class="cls-3" width="500" height="500"/><g class="cls-4"><g class="cls-5"><rect class="cls-6" x="18.68" y="17.63" width="463.03" height="463.03"/></g><path class="cls-7" d="M394.91,403c7.19-14.56,5.85-29.9-3-34.27h0a13,13,0,0,1-7.19-10.44c-2.13-22.44-13-39.55-27.19-40.48C345.41,317,334.15,328.23,328,345.2a19,19,0,0,1-10.17,10.9h0c-11.61,5.15-14.83,23.28-7.19,40.49a2.68,2.68,0,0,1-.56,3,21.56,21.56,0,0,0-1.49,28.86,20.35,20.35,0,0,1,4.51,14.16h0a21.58,21.58,0,0,0,29.25,21.55,35.34,35.34,0,0,1,15-2.28h0A24.57,24.57,0,0,0,383.42,439c.05-.67.06-1.33.05-2A21.55,21.55,0,0,0,394,412.26a13,13,0,0,1,.88-9.25Z"/><path class="cls-8" d="M362.56,387.46a60.42,60.42,0,0,0-5.95,3.53,1.87,1.87,0,0,1-2.85-2,103.91,103.91,0,0,0,2.49-11.33,97.39,97.39,0,0,0,.3-21.53A114.57,114.57,0,0,0,354.48,342c-.08,11-.36,24.12-2.45,34.89-.44,2.53-1.94,7.6-3.64,13.56a1.87,1.87,0,0,1-3.56.12c-.84-2.35-1.72-4.73-2.48-6.67-2.06-5.45-5.23-13.1-7.91-18.34,1.25,4.58,4.52,15.7,5.58,19.14.8,2.71,2.11,6.95,3.43,11.18a22.59,22.59,0,0,1,.46,11.71,160,160,0,0,0-3,17.52c-1.08,9.07-1.11,19.59,1.42,28.44a109.24,109.24,0,0,1,2.37-27.87c1.33-6.79,2.7-12.59,4.42-19.21a22.66,22.66,0,0,1,8.1-12.23,76.74,76.74,0,0,1,6.66-4.54,196.28,196.28,0,0,1,19.34-10.06A94.22,94.22,0,0,0,362.56,387.46Z"/><path class="cls-9" d="M39,167a37.53,37.53,0,0,1,6.45,7.59c14.47,21.7,5,40.75,3.29,56.94A22.68,22.68,0,0,0,49,240l.11.28c1.46,3.93,9.39,16.52,10.19,31.6,1.28,13.94-2,28.46-12.3,37.92.09-1.7.3-3.27.42-4.83l.06-2.34a78.54,78.54,0,0,0-6.57-31A136.71,136.71,0,0,0,31.68,254c-.24-1-10-11.71-1.71-35.82.56-1.7,7-18.94,7-18.84C37.26,197.92,41.27,189.64,39,167Z"/><path class="cls-10" d="M45.93,180a45.33,45.33,0,0,1-.34,15.84c-1,5.23-2.5,10.32-3.9,15.43q-1.06,3.83-1.93,7.68c-.23,1.29-.55,2.58-.69,3.88-.08.65-.19,1.3-.26,2l-.13,2a24.76,24.76,0,0,0,3.71,14.92,84,84,0,0,1,6.69,14.48,74.4,74.4,0,0,1,3.74,15.5,58.46,58.46,0,0,1-.08,15.91,45,45,0,0,1-5,15,46.47,46.47,0,0,0,4.59-15.09,58.17,58.17,0,0,0-.17-15.76A81.67,81.67,0,0,0,41.59,242.1a25.8,25.8,0,0,1-3.75-15.44A69.61,69.61,0,0,1,41,211c1.48-5.09,3.08-10.13,4.14-15.31A46.88,46.88,0,0,0,45.93,180Z"/><path class="cls-11" d="M37,199.33a25.55,25.55,0,0,1-1,18.15c-4.23,10-7.71,11.54-5.28,20.47,0,0-6.17-8-4.07-16.77S37,199.33,37,199.33Z"/><path class="cls-12" d="M135.31,293.65c-.44,8.25-.71,18.84,1.22,26.91.24,1.62,2.3,7.5,2.17,7.11,3.87,13.14,15.45,34.18,1.45,54.86.07-.09-2.59,3.44-7,9.76-13.91,21-14.79,32.79-16.19,43.23a37.31,37.31,0,0,1-3.83-3.63c-9.68-12.54-10.66-25.62-7.94-41.33a70.57,70.57,0,0,1,10-24.13,2.08,2.08,0,0,0,.14-.24,3.75,3.75,0,0,1,.48-.95,20.1,20.1,0,0,0,.7-2.46c1.62-5.08-2.33-20.19-.85-37.94C116.72,314,124.76,299.77,135.31,293.65Z"/><path class="cls-13" d="M127.57,316.63a47.06,47.06,0,0,0-.13,15.75c.74,5.21,2,10.34,3.16,15.52a69.76,69.76,0,0,1,2.13,15.9,26.13,26.13,0,0,1-4.92,15.38,83.53,83.53,0,0,0-7.67,13.69,78.2,78.2,0,0,0-5,14.89,59.36,59.36,0,0,0-1.44,15.61,46.85,46.85,0,0,0,3.27,15.4,44.47,44.47,0,0,1-4.18-15.34,57.09,57.09,0,0,1,.93-16,79.84,79.84,0,0,1,12.54-29.34c.4-.55.71-1.09,1-1.63s.71-1.06,1-1.63a24,24,0,0,0,1.44-3.53,16.75,16.75,0,0,0,.52-1.84l.37-1.88c.12-.63.13-1.28.2-1.92a15.51,15.51,0,0,0,.12-1.93l0-1.94c0-.64-.07-1.29-.1-1.94,0-1.3-.26-2.6-.38-3.9-.38-2.6-.82-5.19-1.33-7.79-1-5.18-2.12-10.4-2.65-15.7A44.74,44.74,0,0,1,127.57,316.63Z"/><path class="cls-14" d="M94,264.51a37.81,37.81,0,0,1,6.45,7.59c14.47,21.7,5,40.75,3.28,56.94a22.68,22.68,0,0,0,.34,8.49l.12.28c1.45,3.93,9.39,16.52,10.18,31.6,1.29,13.94-2,28.47-12.3,37.92.1-1.7.31-3.27.43-4.83l.06-2.34a79,79,0,0,0-6.57-31c-3.28-8.15-9.68-18.25-9.26-17.59-.25-1-10-11.72-1.71-35.83.56-1.69,7-18.93,7-18.84C92.28,295.46,96.29,287.19,94,264.51Z"/><path class="cls-15" d="M100.94,277.5a45.39,45.39,0,0,1-.33,15.85c-1,5.23-2.51,10.32-3.9,15.42q-1.06,3.83-1.93,7.68c-.23,1.3-.55,2.58-.69,3.89-.09.65-.19,1.3-.26,2l-.13,2a24.85,24.85,0,0,0,3.7,14.92,83.35,83.35,0,0,1,6.7,14.48,74.46,74.46,0,0,1,3.74,15.49,58.54,58.54,0,0,1-.08,15.92,45.5,45.5,0,0,1-5,15A46.39,46.39,0,0,0,107.31,385a58.1,58.1,0,0,0-.18-15.75,81.7,81.7,0,0,0-10.52-29.6,25.7,25.7,0,0,1-3.75-15.43A69.39,69.39,0,0,1,96,308.58c1.48-5.09,3.08-10.14,4.14-15.32A46.62,46.62,0,0,0,100.94,277.5Z"/><path class="cls-16" d="M341.24,323.21a37.49,37.49,0,0,1,6.45,7.59c14.48,21.7,5.05,40.75,3.29,56.94a22.68,22.68,0,0,0,.34,8.49l.11.28c1.46,3.93,9.39,16.52,10.19,31.6,1.28,13.94-2,28.47-12.3,37.92.1-1.7.3-3.27.42-4.83l.06-2.34a78.54,78.54,0,0,0-6.57-31A137,137,0,0,0,334,410.24c-.24-1-10-11.72-1.71-35.83.56-1.69,7-18.93,7-18.84C339.56,354.16,343.56,345.89,341.24,323.21Z"/><path class="cls-17" d="M348.22,336.2a45.4,45.4,0,0,1-.34,15.85c-1,5.22-2.5,10.32-3.9,15.42q-1.07,3.82-1.93,7.68c-.23,1.3-.54,2.58-.69,3.88-.08.65-.18,1.3-.25,2l-.13,2a24.86,24.86,0,0,0,3.7,14.92,84,84,0,0,1,6.7,14.47,75.17,75.17,0,0,1,3.73,15.5,57.75,57.75,0,0,1-.08,15.92,45,45,0,0,1-5,15,46.15,46.15,0,0,0,4.59-15.09,57.69,57.69,0,0,0-.17-15.75,81.82,81.82,0,0,0-10.52-29.6,25.72,25.72,0,0,1-3.75-15.44,70,70,0,0,1,3.16-15.62c1.48-5.09,3.09-10.14,4.14-15.32A46.36,46.36,0,0,0,348.22,336.2Z"/><path class="cls-18" d="M410.79,194.09a51.15,51.15,0,0,1,9,10.22c16.51,23.76,11.53,45.6,7.58,67-3.4,18.31-.95,22.24-1,22.09,2.18,6.38,22.66,37.22,13.09,72.23-2.54,9.15-7.1,17.79-13.92,23.86.09-2.33.33-4.49.46-6.62-.07-12.57-.73-22.68-7.61-40.32-11-28-19.42-28.87-22.21-47.39a56.1,56.1,0,0,1-.26-12.81c1.65-22.87,14.65-36.08,16.14-63A152.05,152.05,0,0,0,410.79,194.09Z"/><path class="cls-19" d="M420.68,211.7a61.06,61.06,0,0,1,.34,21.78c-1.09,7.23-3,14.29-4.72,21.32q-1.32,5.26-2.36,10.55c-.27,1.76-.65,3.52-.8,5.29-.09.89-.2,1.77-.28,2.65l-.1,2.65a33.34,33.34,0,0,0,5.36,19.9,108.84,108.84,0,0,1,15,41.11,77.6,77.6,0,0,1,.07,21.95,61.16,61.16,0,0,1-6.89,20.66c6.12-13.27,7-28.19,4.62-42.27a107.46,107.46,0,0,0-5.75-20.69,114,114,0,0,0-9.49-19.26,35.87,35.87,0,0,1-5.64-21.48c.34-7.47,2.13-14.64,4.1-21.63s4.08-13.92,5.49-21A64.6,64.6,0,0,0,420.68,211.7Z"/><path class="cls-20" d="M407.35,297.68c-.44,8.24-.7,18.83,1.22,26.9.25,1.63,2.31,7.5,2.18,7.11,3.86,13.14,15.44,34.19,1.45,54.86.06-.09-2.59,3.44-7,9.76-13.9,21-14.78,32.8-16.19,43.23a38.27,38.27,0,0,1-3.82-3.63c-9.68-12.54-10.67-25.62-7.94-41.33a70.45,70.45,0,0,1,10-24.13,1.68,1.68,0,0,0,.14-.23,4,4,0,0,1,.48-1,20.33,20.33,0,0,0,.7-2.45c1.62-5.08-2.33-20.19-.84-37.94C388.77,318,396.8,303.79,407.35,297.68Z"/><path class="cls-21" d="M399.61,320.65a47.06,47.06,0,0,0-.13,15.75c.74,5.22,2,10.34,3.16,15.53a69.68,69.68,0,0,1,2.13,15.9,26.09,26.09,0,0,1-4.92,15.38,83.39,83.39,0,0,0-7.66,13.69,78.14,78.14,0,0,0-5,14.88,59.43,59.43,0,0,0-1.44,15.62A46.79,46.79,0,0,0,389,442.79a44.68,44.68,0,0,1-4.17-15.33,56.7,56.7,0,0,1,.93-16,79.58,79.58,0,0,1,12.53-29.34c.4-.56.72-1.1,1.06-1.64s.7-1.06,1-1.63a23.54,23.54,0,0,0,1.44-3.53,12.88,12.88,0,0,0,.52-1.84l.37-1.88c.13-.63.13-1.28.21-1.91a17.7,17.7,0,0,0,.12-1.93l0-1.94c0-.65-.07-1.3-.11-2,0-1.3-.25-2.6-.38-3.9-.38-2.59-.82-5.19-1.33-7.78-1-5.19-2.11-10.4-2.65-15.71A45,45,0,0,1,399.61,320.65Z"/><path class="cls-22" d="M81.68,334.18s11.94,12,16.46,21.6,10.55,30.86,8.46,46.46c0,0-12.8-38.38-20.63-51.94C80.89,341.5,81.68,334.18,81.68,334.18Z"/><path class="cls-23" d="M46.68,219.26a62.19,62.19,0,0,1,12.34,11c23.26,26.28,20.36,53.3,18.65,79.66-1.49,22.55,2,26.94,2,26.76,3.53,7.37,32.58,41.62,26,85.16-1.75,11.38-6,22.44-13.37,30.72-.22-2.82-.24-5.46-.39-8C90,429.42,87.78,417.33,77,397.06c-17.22-32.18-27.5-32-33.49-53.94a69.08,69.08,0,0,1-2.14-15.4c-1.26-27.79,12.53-45.55,10.5-78.19A183.49,183.49,0,0,0,46.68,219.26Z"/><path class="cls-24" d="M61.11,239.06a74.55,74.55,0,0,1,3.5,26.2c-.3,8.87-1.56,17.64-2.66,26.35q-.84,6.54-1.34,13.05c-.08,2.16-.29,4.34-.21,6.49,0,1.08,0,2.16,0,3.23l.25,3.21A40.47,40.47,0,0,0,70,340.8a132.06,132.06,0,0,1,23.94,47.4,94,94,0,0,1,3.2,26.42,74,74,0,0,1-5.37,25.88c5.5-16.85,4.45-35-.43-51.58a131.42,131.42,0,0,0-9.87-24.12A139.56,139.56,0,0,0,67.27,343a43.61,43.61,0,0,1-9.85-25.09c-.65-9,.48-17.93,1.86-26.63s2.95-17.36,3.64-26.08A78.69,78.69,0,0,0,61.11,239.06Z"/><path class="cls-25" d="M139.37,329.61s-6.69,3.88-8.73,13.94,4.05,25.58,9.37,34.85c0,0,3.68-25,3.47-31.49S139.37,329.61,139.37,329.61Z"/><path class="cls-26" d="M204.23,388.61c7.2-14.56,5.85-29.91-3-34.28h0A13,13,0,0,1,194,343.89c-2.12-22.44-13-39.55-27.19-40.48-12.11-.8-23.37,10.42-29.54,27.39a19.06,19.06,0,0,1-10.17,10.9h0c-11.6,5.15-14.82,23.27-7.18,40.48a2.69,2.69,0,0,1-.56,3A21.54,21.54,0,0,0,117.9,414a20.35,20.35,0,0,1,4.52,14.16h0a21.57,21.57,0,0,0,29.24,21.56,35.35,35.35,0,0,1,15-2.29h0a24.58,24.58,0,0,0,26.13-22.91c0-.67.05-1.33,0-2a21.57,21.57,0,0,0,10.56-24.72,13,13,0,0,1,.88-9.24Z"/><path class="cls-27" d="M171.88,373.06a58.51,58.51,0,0,0-5.95,3.53,1.87,1.87,0,0,1-2.85-2,107.21,107.21,0,0,0,2.5-11.33,98,98,0,0,0,.3-21.53,115,115,0,0,0-2.08-14.09c-.08,11-.36,24.13-2.45,34.9-.43,2.53-1.93,7.6-3.63,13.56a1.88,1.88,0,0,1-3.57.12c-.84-2.35-1.72-4.73-2.47-6.67-2.06-5.45-5.24-13.1-7.92-18.34,1.26,4.57,4.53,15.7,5.59,19.13.8,2.72,2.1,7,3.42,11.18a22.53,22.53,0,0,1,.46,11.72,159.91,159.91,0,0,0-3,17.51c-1.07,9.08-1.11,19.6,1.43,28.45A109.6,109.6,0,0,1,154,411.3c1.33-6.79,2.7-12.6,4.43-19.21a22.61,22.61,0,0,1,8.09-12.24,77.36,77.36,0,0,1,6.67-4.53,195.09,195.09,0,0,1,19.33-10.06A94.22,94.22,0,0,0,171.88,373.06Z"/><path class="cls-11" d="M370.86,322.63a47,47,0,0,0-2.69,13.75,39.46,39.46,0,0,0,2.41,14.49s3-14.06,2.34-18.73A89.37,89.37,0,0,0,370.86,322.63Z"/><path class="cls-28" d="M363.88,308.87a37.81,37.81,0,0,1,6.45,7.59c14.47,21.7,5,40.75,3.28,56.94a22.26,22.26,0,0,0,.35,8.49l.11.28c1.46,3.93,9.39,16.52,10.18,31.6,1.29,13.94-2,28.47-12.29,37.92.09-1.7.3-3.27.42-4.83l.06-2.34a78.54,78.54,0,0,0-6.57-31c-3.28-8.15-9.68-18.25-9.26-17.59-.24-1-10-11.72-1.71-35.83.56-1.69,7-18.93,7-18.84C362.19,339.82,366.2,331.55,363.88,308.87Z"/><path class="cls-29" d="M370.86,321.86a45.4,45.4,0,0,1-.34,15.85c-1,5.22-2.5,10.32-3.9,15.42q-1.06,3.83-1.93,7.68c-.23,1.3-.55,2.58-.69,3.88-.08.66-.19,1.31-.26,2l-.13,2a24.78,24.78,0,0,0,3.71,14.92A84,84,0,0,1,374,398a74.46,74.46,0,0,1,3.74,15.49,58.54,58.54,0,0,1-.08,15.92,45.5,45.5,0,0,1-5,15,46.39,46.39,0,0,0,4.59-15.09A57.7,57.7,0,0,0,377,413.6,81.51,81.51,0,0,0,366.52,384a25.77,25.77,0,0,1-3.75-15.43,69.39,69.39,0,0,1,3.17-15.63c1.48-5.09,3.08-10.14,4.14-15.32A46.88,46.88,0,0,0,370.86,321.86Z"/><path class="cls-11" d="M425.64,285.27s-3.62,7.3-2.58,14.51S428.2,317,428.2,317s-5.41,7.48-5,14.28,9.48-8.93,9.64-13.09-3.54-18.36-5-21.54S425.64,285.27,425.64,285.27Z"/><path class="cls-30" d="M378,78.14s7.23-28,39.17-29.81S484.83,3,484.83,3l23.78,50.22S482.17,81.48,424.17,69.6C396,63.83,378,78.14,378,78.14Z"/></g></g><g id="OBJECTS"><path class="cls-31" d="M329.91,264.36,375,230.54l-1.94-1.94a2.67,2.67,0,0,1-2.62,1.77,2.73,2.73,0,0,1-2.81-2.56,2.48,2.48,0,0,1-.91-.85l2.28-2.28-3.52-3.53L353.61,233l-1-1v-8.89c0-.06,0-.11,0-.17l-1.83-1.83-34.14,43.21Z"/><line class="cls-32" x1="75.98" y1="273.49" x2="89.68" y2="273.49"/><line class="cls-32" x1="82.83" y1="266.64" x2="82.83" y2="280.34"/><line class="cls-33" x1="183.5" y1="283.28" x2="191.79" y2="291.57"/><line class="cls-33" x1="191.79" y1="283.28" x2="183.5" y2="291.57"/><line class="cls-33" x1="146.47" y1="138.25" x2="156.58" y2="148.36"/><line class="cls-33" x1="156.58" y1="138.25" x2="146.47" y2="148.36"/><line class="cls-33" x1="270.94" y1="359.67" x2="285.23" y2="359.67"/><line class="cls-33" x1="278.09" y1="352.52" x2="278.09" y2="366.81"/><line class="cls-33" x1="344.68" y1="136.14" x2="364.57" y2="136.14"/><line class="cls-33" x1="354.63" y1="126.2" x2="354.63" y2="146.09"/><path class="cls-34" d="M74,242.08a5,5,0,1,1-5-5A5,5,0,0,1,74,242.08Z"/><path class="cls-34" d="M50.59,224a3.92,3.92,0,1,1-3.92-3.91A3.92,3.92,0,0,1,50.59,224Z"/><path class="cls-34" d="M407.94,142.35a5,5,0,1,1-5-5A5,5,0,0,1,407.94,142.35Z"/><path class="cls-34" d="M384.53,124.24a3.92,3.92,0,1,1-3.92-3.91A3.92,3.92,0,0,1,384.53,124.24Z"/><path class="cls-3" d="M147.86,99.2l.28.51a15.59,15.59,0,0,0,6.21,6.21l.51.28-.51.28a15.59,15.59,0,0,0-6.21,6.21l-.28.51-.28-.51a15.59,15.59,0,0,0-6.21-6.21l-.51-.28.51-.28a15.59,15.59,0,0,0,6.21-6.21Z"/><path class="cls-3" d="M135.16,94.43l.18.32a9.62,9.62,0,0,0,3.82,3.82l.32.17-.32.17a9.71,9.71,0,0,0-3.82,3.83l-.18.31-.17-.31a9.71,9.71,0,0,0-3.82-3.83l-.32-.17.32-.17A9.62,9.62,0,0,0,135,94.75Z"/><path class="cls-3" d="M373.17,384.36l.18.34a10.46,10.46,0,0,0,4.15,4.14l.33.18-.33.19a10.46,10.46,0,0,0-4.15,4.14l-.18.34-.19-.34a10.37,10.37,0,0,0-4.14-4.14l-.33-.19.33-.18A10.37,10.37,0,0,0,373,384.7Z"/><path class="cls-3" d="M333.85,237.72l.21.38a11.88,11.88,0,0,0,4.71,4.72l.39.21-.39.21a11.86,11.86,0,0,0-4.71,4.71l-.21.39-.21-.39a11.88,11.88,0,0,0-4.72-4.71l-.38-.21.38-.21a11.91,11.91,0,0,0,4.72-4.72Z"/><path class="cls-3" d="M345.17,251.14l.14.26a8.22,8.22,0,0,0,3.28,3.28l.26.14-.26.15a8.19,8.19,0,0,0-3.28,3.27l-.14.27-.15-.27a8.17,8.17,0,0,0-3.27-3.27l-.27-.15.27-.14A8.19,8.19,0,0,0,345,251.4Z"/><path class="cls-3" d="M365.87,375.12l.11.2a6.41,6.41,0,0,0,2.55,2.56l.21.11-.21.11a6.45,6.45,0,0,0-2.55,2.55l-.11.21-.12-.21a6.45,6.45,0,0,0-2.55-2.55L363,378l.21-.11a6.41,6.41,0,0,0,2.55-2.56Z"/><path class="cls-34" d="M112.81,400a3.45,3.45,0,1,1-3.45-3.45A3.45,3.45,0,0,1,112.81,400Z"/><path class="cls-34" d="M99.12,383.13a2.27,2.27,0,1,1-2.27-2.27A2.27,2.27,0,0,1,99.12,383.13Z"/><path class="cls-34" d="M399.66,407.44a4,4,0,1,1-4-3.95A4,4,0,0,1,399.66,407.44Z"/><path class="cls-35" d="M268.45,398.33l8.91,38.58a4.78,4.78,0,0,0,4.66,3.71h50.4a4.79,4.79,0,0,0,4.67-3.71l8.9-38.58Zm16.78,35.74a2.49,2.49,0,0,1-.47,0,2.65,2.65,0,0,1-2.6-2.17l-3.3-18.5a2.64,2.64,0,0,1,5.2-.93l3.31,18.5A2.64,2.64,0,0,1,285.23,434.07Zm10.95,0H296a2.64,2.64,0,0,1-2.63-2.45L292,413.17a2.64,2.64,0,1,1,5.27-.38l1.32,18.49A2.65,2.65,0,0,1,296.18,434.11Zm13.68-2.64a2.64,2.64,0,1,1-5.28,0V413a2.64,2.64,0,1,1,5.28,0Zm11.23.19a2.64,2.64,0,0,1-2.64,2.45h-.19a2.66,2.66,0,0,1-2.45-2.83l1.33-18.49a2.64,2.64,0,1,1,5.27.38Zm14.49-18.22-3.3,18.5a2.64,2.64,0,0,1-2.6,2.17,2.56,2.56,0,0,1-.47,0,2.63,2.63,0,0,1-2.13-3.06l3.3-18.5a2.64,2.64,0,0,1,5.2.93Z"/><path class="cls-36" d="M344.23,406.59H271a6.37,6.37,0,0,1-6.38-6.38h0a6.38,6.38,0,0,1,6.38-6.38h73.22a6.39,6.39,0,0,1,6.39,6.38h0A6.38,6.38,0,0,1,344.23,406.59Z"/><circle class="cls-35" cx="307.22" cy="400.21" r="5.28"/><line class="cls-37" x1="307.22" y1="400.21" x2="299.65" y2="365.09"/><path class="cls-3" d="M159.23,282.46a4.24,4.24,0,0,0-.72-3.13l-.74-1a2.36,2.36,0,0,0-3.29-.55h0a2.38,2.38,0,0,1-3.3-.56h0a2.37,2.37,0,0,0-3.29-.56h0a2.18,2.18,0,0,1-2.55,0l-.74-.54a2.38,2.38,0,0,0-3.3-.56h0A2.36,2.36,0,0,1,138,275h0a2.36,2.36,0,0,0-3.29-.56h0a2.37,2.37,0,0,1-3.3-.55h0a2.35,2.35,0,0,0-3.29-.56l-.87.27a2.2,2.2,0,0,1-2.42-.82h0a2.36,2.36,0,0,0-3.3-.56h0a2.35,2.35,0,0,1-3.29-.56h0a2.36,2.36,0,0,0-3.29-.55l-.88.27a2.17,2.17,0,0,1-2.41-.83h0a2.37,2.37,0,0,0-3.3-.55l-1,.74a4.17,4.17,0,0,0-1.7,2.72L93.46,345.56a4.18,4.18,0,0,0,.71,3.13l.74,1a2.38,2.38,0,0,0,3.3.56h0a2.36,2.36,0,0,1,3.29.55h0a2.35,2.35,0,0,0,3.29.56h0a2.36,2.36,0,0,1,3.29.55h0a2.36,2.36,0,0,0,3.3.56h0a2.35,2.35,0,0,1,3.29.56h0a2.36,2.36,0,0,0,3.29.55h0a2.37,2.37,0,0,1,3.3.56h0a2.36,2.36,0,0,0,3.29.55h0a2.37,2.37,0,0,1,3.29.56h0a2.37,2.37,0,0,0,3.3.55h0a2.37,2.37,0,0,1,3.29.56h0a2.37,2.37,0,0,0,3.29.56h0a2.37,2.37,0,0,1,3.3.55h0a2.37,2.37,0,0,0,3.29.56l1-.74a4.18,4.18,0,0,0,1.7-2.72Z"/><rect class="cls-38" x="110.16" y="282.04" width="26.47" height="3.39" transform="translate(48.93 -16.57) rotate(9.58)"/><rect class="cls-38" x="107.88" y="296.16" width="41.38" height="3.39" transform="translate(51.35 -17.24) rotate(9.58)"/><rect class="cls-38" x="106.46" y="304.57" width="41.38" height="3.39" transform="translate(52.73 -16.89) rotate(9.58)"/><rect class="cls-38" x="105.04" y="312.98" width="41.38" height="3.39" transform="translate(54.1 -16.53) rotate(9.58)"/><rect class="cls-38" x="103.62" y="321.38" width="41.38" height="3.39" transform="translate(55.48 -16.18) rotate(9.58)"/><rect class="cls-38" x="102.2" y="329.79" width="41.38" height="3.39" transform="translate(56.86 -15.83) rotate(9.58)"/><rect class="cls-38" x="100.79" y="338.2" width="41.38" height="3.39" transform="translate(58.24 -15.47) rotate(9.58)"/><path class="cls-3" d="M374.82,82.56,373.05,82a1.72,1.72,0,0,0-2.18,1.11l-2.36,7.27a1.74,1.74,0,0,0,1.11,2.19l19.49,6.32,3.43-10.57-13.1-4.25A2.66,2.66,0,0,1,374.82,82.56Z"/><rect class="cls-39" x="389.93" y="72.95" width="30.56" height="50.62" rx="3.36" ry="3.36" transform="translate(186.67 453.36) rotate(-72.02)"/><path class="cls-40" d="M398.8,81h19.36a0,0,0,0,1,0,0v25.93a0,0,0,0,1,0,0H398.8a1.48,1.48,0,0,1-1.48-1.48v-23A1.48,1.48,0,0,1,398.8,81Z" transform="translate(192.5 452.8) rotate(-72.02)"/><path class="cls-36" d="M397.92,80.72h19.36a0,0,0,0,1,0,0v25.93a0,0,0,0,1,0,0H397.92a1.48,1.48,0,0,1-1.48-1.48v-23A1.48,1.48,0,0,1,397.92,80.72Z" transform="translate(192.17 451.77) rotate(-72.02)"/><polygon class="cls-35" points="422.41 87.78 419.58 96.51 397.75 79.78 422.41 87.78"/><path class="cls-3" d="M317.78,303.39H380.3a0,0,0,0,1,0,0V351a3.64,3.64,0,0,1-3.64,3.64H321.41a3.64,3.64,0,0,1-3.64-3.64V303.39A0,0,0,0,1,317.78,303.39Z" transform="translate(87.17 -72.86) rotate(13.6)"/><rect class="cls-41" x="322.38" y="303.94" width="62.52" height="12.14" transform="translate(82.83 -74.47) rotate(13.6)"/><path class="cls-3" d="M324.7,300.29h59.58A3.73,3.73,0,0,1,388,304v8.72a0,0,0,0,1,0,0H321a0,0,0,0,1,0,0V304A3.73,3.73,0,0,1,324.7,300.29Z" transform="translate(82.03 -74.77) rotate(13.6)"/><rect class="cls-36" x="344.04" y="299.69" width="10.88" height="55.02" transform="translate(86.75 -73.01) rotate(13.6)"/><path class="cls-36" d="M356,300.47l-19.54-4.73L338.3,288a2.55,2.55,0,0,1,3.75-1.61l15.2,8.77Z"/><path class="cls-36" d="M356,300.47l19.54,4.72,1.89-7.79a2.55,2.55,0,0,0-2.6-3.14l-17.53.85Z"/><rect class="cls-35" x="353.18" y="294.01" width="7.05" height="6.55" transform="translate(79.92 -75.55) rotate(13.6)"/><rect class="cls-3" x="152.91" y="370.69" width="55.27" height="36.46" rx="4.1" ry="4.1" transform="translate(309.1 -20.14) rotate(42.35)"/><rect class="cls-39" x="147.37" y="391" width="55.27" height="8" transform="translate(311.75 -14.82) rotate(42.35)"/><path class="cls-35" d="M197.91,394a5.75,5.75,0,1,1-.38-8.12A5.76,5.76,0,0,1,197.91,394Z"/><path class="cls-42" d="M203.29,398.86a5.75,5.75,0,1,1-.38-8.12A5.75,5.75,0,0,1,203.29,398.86Z"/><path class="cls-3" d="M331.29,78.45l-17.49-3.7-35.69,35.69,21.19,21.19L335,95.94Zm-7.71,7.79c-2.36-2.36,1.31-6,3.68-3.67S326,88.61,323.58,86.24Z"/><rect class="cls-35" x="289.84" y="108.54" width="20.21" height="2.7" transform="translate(-18.83 89.29) rotate(-16.42)"/><path class="cls-35" d="M296.54,105.27A4.78,4.78,0,1,1,303,105,4.6,4.6,0,0,1,296.54,105.27Zm4.82-4.83a2.11,2.11,0,1,0-.27,2.65A1.92,1.92,0,0,0,301.36,100.44Z"/><path class="cls-35" d="M296.72,121.13a4.77,4.77,0,1,1,6.47-.27A4.61,4.61,0,0,1,296.72,121.13Zm4.83-4.82a2.1,2.1,0,1,0-.27,2.64A1.9,1.9,0,0,0,301.55,116.31Z"/><path class="cls-43" d="M325.42,83.48v-.23a15.16,15.16,0,0,1,15.16-15.16h0a15.16,15.16,0,0,1,15.16,15.16v5.08"/><rect class="cls-39" x="192.52" y="58.84" width="65.86" height="37.19" rx="2.35" ry="2.35"/><ellipse class="cls-3" cx="225.45" cy="77.43" rx="9.82" ry="12.25"/><path class="cls-3" d="M249.13,58.84H194.87a2.35,2.35,0,0,0-2.35,2.35V93.67A2.35,2.35,0,0,0,194.87,96H256a2.35,2.35,0,0,0,2.35-2.35V61.19A2.35,2.35,0,0,0,256,58.84ZM249,93.4H201.71a7.5,7.5,0,0,0-6.56-6.57V68a7.49,7.49,0,0,0,6.56-6.56H249A7.49,7.49,0,0,0,255.76,68V86.81A7.5,7.5,0,0,0,249,93.4Z"/><rect class="cls-39" x="179.74" y="68.35" width="65.86" height="37.19" rx="2.35" ry="2.35"/><ellipse class="cls-3" cx="212.67" cy="86.94" rx="9.82" ry="12.25"/><path class="cls-3" d="M236.34,68.35H182.09a2.35,2.35,0,0,0-2.35,2.35v32.49a2.35,2.35,0,0,0,2.35,2.35h61.16a2.35,2.35,0,0,0,2.35-2.35V70.7a2.35,2.35,0,0,0-2.35-2.35Zm-.15,34.56H188.92a7.48,7.48,0,0,0-6.56-6.56V77.54A7.49,7.49,0,0,0,188.92,71h47.27A7.48,7.48,0,0,0,243,77.56V96.33A7.48,7.48,0,0,0,236.19,102.91Z"/><path class="cls-44" d="M207.69,325.05,244.5,304.4l36.82,20.65a4.1,4.1,0,0,1-2,7.67H209.69A4.09,4.09,0,0,1,207.69,325.05Z"/><path class="cls-44" d="M251,291.89a6.5,6.5,0,1,0-6.5,6.5v5.9"/><path class="cls-45" d="M184.86,336.24,227,333.1l24.64,34.27a4.1,4.1,0,0,1-5.06,6.11l-63.1-29.43A4.1,4.1,0,0,1,184.86,336.24Z"/><path class="cls-46" d="M238.13,324.51a6.5,6.5,0,1,0-8.63,3.14L227,333"/><path class="cls-3" d="M463.84,193.66a2.29,2.29,0,1,1-4.23-.51,2.26,2.26,0,0,1,1.28-1.08l-5.76-3.1a2.26,2.26,0,0,1-.2,1.66,2.29,2.29,0,1,1-4-2.17,2.31,2.31,0,0,1,1.29-1.08l-5.77-3.1a2.25,2.25,0,0,1-.19,1.66,2.29,2.29,0,1,1-4-2.17,2.26,2.26,0,0,1,1.28-1.08l-5.76-3.1a2.29,2.29,0,1,1-4.23-.51,2.26,2.26,0,0,1,1.28-1.08L429,174.9a2.26,2.26,0,0,1-.2,1.66,2.29,2.29,0,1,1-2.75-3.25l-5.77-3.1a2.29,2.29,0,1,1-4.23-.51,2.26,2.26,0,0,1,1.28-1.08l-5.76-3.1a2.26,2.26,0,0,1-.2,1.66,2.29,2.29,0,1,1-4-2.17,2.31,2.31,0,0,1,1.29-1.08l-5-2.69-25.91,48.15,64.92,34.94,25.91-48.15Z"/><rect class="cls-41" x="401.85" y="175.89" width="8.98" height="8.98" rx="1.09" ry="1.09" transform="translate(134.03 -171.04) rotate(28.29)"/><rect class="cls-41" x="413.02" y="181.9" width="8.98" height="8.98" rx="1.09" ry="1.09" transform="translate(138.21 -175.61) rotate(28.29)"/><rect class="cls-41" x="424.2" y="187.91" width="8.98" height="8.98" rx="1.09" ry="1.09" transform="translate(142.39 -180.19) rotate(28.29)"/><rect class="cls-41" x="435.37" y="193.93" width="8.98" height="8.98" rx="1.09" ry="1.09" transform="translate(146.57 -184.77) rotate(28.29)"/><rect class="cls-41" x="446.55" y="199.94" width="8.98" height="8.98" rx="1.09" ry="1.09" transform="translate(150.76 -189.35) rotate(28.29)"/><rect class="cls-41" x="395.92" y="186.91" width="8.98" height="8.98" rx="1.09" ry="1.09" transform="translate(138.54 -166.91) rotate(28.29)"/><rect class="cls-41" x="407.09" y="192.92" width="8.98" height="8.98" rx="1.09" ry="1.09" transform="translate(142.72 -171.48) rotate(28.29)"/><rect class="cls-41" x="418.26" y="198.94" width="8.98" height="8.98" rx="1.09" ry="1.09" transform="translate(146.91 -176.06) rotate(28.29)"/><rect class="cls-36" x="429.44" y="204.95" width="8.98" height="8.98" rx="1.09" ry="1.09" transform="translate(151.09 -180.64) rotate(28.29)"/><rect class="cls-41" x="440.61" y="210.97" width="8.98" height="8.98" rx="1.09" ry="1.09" transform="translate(155.28 -185.22) rotate(28.29)"/><rect class="cls-41" x="389.98" y="197.94" width="8.98" height="8.98" rx="1.09" ry="1.09" transform="matrix(0.88, 0.47, -0.47, 0.88, 143.05, -162.78)"/><rect class="cls-41" x="401.16" y="203.95" width="8.98" height="8.98" rx="1.09" ry="1.09" transform="translate(147.24 -167.36) rotate(28.29)"/><rect class="cls-41" x="412.33" y="209.96" width="8.98" height="8.98" rx="1.09" ry="1.09" transform="translate(151.43 -171.93) rotate(28.29)"/><rect class="cls-41" x="423.5" y="215.98" width="8.98" height="8.98" rx="1.09" ry="1.09" transform="translate(155.61 -176.51) rotate(28.29)"/><rect class="cls-41" x="434.68" y="221.99" width="8.98" height="8.98" rx="1.09" ry="1.09" transform="translate(159.8 -181.09) rotate(28.29)"/><rect class="cls-47" x="168.56" y="155.45" width="159.36" height="106.18" rx="9.35" ry="9.35"/><rect class="cls-48" x="176.86" y="163.76" width="142.76" height="89.56"/><rect class="cls-49" x="176.86" y="244.76" width="142.76" height="8.56"/><rect class="cls-50" x="176.86" y="163.76" width="142.76" height="4.25"/><path class="cls-47" d="M326.34,272.34H170.13a10.7,10.7,0,0,1-10.71-10.71H337.06A10.71,10.71,0,0,1,326.34,272.34Z"/><path class="cls-51" d="M326.34,268.65H170.13a10.7,10.7,0,0,1-10-7h-.66a10.7,10.7,0,0,0,10.71,10.71H326.34a10.71,10.71,0,0,0,10.72-10.71h-.67A10.7,10.7,0,0,1,326.34,268.65Z"/><rect class="cls-51" x="164.48" y="259.53" width="167.51" height="2.1"/><path class="cls-51" d="M258.33,265.22H238.15a3.59,3.59,0,0,1-3.59-3.59h27.35A3.58,3.58,0,0,1,258.33,265.22Z"/><polyline class="cls-47" points="181.93 259.53 181.93 256.15 201.53 256.15 201.53 259.53"/><polyline class="cls-47" points="314.94 256.15 314.94 259.53 295.35 259.53 295.35 256.15"/><polygon class="cls-52" points="224.47 163.76 176.86 211.37 176.86 253.32 176.96 253.32 266.52 163.76 224.47 163.76"/><polygon class="cls-53" points="190.16 253.32 216.28 253.32 305.84 163.76 279.72 163.76 190.16 253.32"/><polygon class="cls-54" points="302.82 253.32 319.62 236.53 319.62 210.41 276.71 253.32 302.82 253.32"/><polygon class="cls-51" points="173.24 179.78 154.54 179.78 168.37 155.45 184.3 155.45 173.24 179.78"/><polygon class="cls-55" points="191.93 179.78 173.23 179.78 184.29 155.45 200.23 155.45 191.93 179.78"/><polygon class="cls-51" points="210.62 179.78 191.92 179.78 200.22 155.45 216.15 155.45 210.62 179.78"/><polygon class="cls-55" points="229.31 179.78 210.61 179.78 216.15 155.45 232.08 155.45 229.31 179.78"/><polygon class="cls-51" points="248 179.78 229.3 179.78 232.07 155.45 248 155.45 248 179.78"/><polygon class="cls-55" points="266.69 179.78 248 179.78 248 155.45 263.93 155.45 266.69 179.78"/><polygon class="cls-51" points="285.38 179.78 266.69 179.78 263.92 155.45 279.85 155.45 285.38 179.78"/><polygon class="cls-55" points="304.08 179.78 285.38 179.78 279.85 155.45 295.78 155.45 304.08 179.78"/><polygon class="cls-51" points="322.77 179.78 304.07 179.78 295.77 155.45 311.7 155.45 322.77 179.78"/><polygon class="cls-55" points="341.46 179.78 322.76 179.78 311.7 155.45 327.63 155.45 341.46 179.78"/><path class="cls-56" d="M163.88,190.15h0a9.34,9.34,0,0,1-9.34-9.34v-1h18.69v1A9.34,9.34,0,0,1,163.88,190.15Z"/><path class="cls-3" d="M173.23,179.78h18.69a0,0,0,0,1,0,0v1a9.35,9.35,0,0,1-9.35,9.35h0a9.35,9.35,0,0,1-9.35-9.35v-1a0,0,0,0,1,0,0Z"/><path class="cls-56" d="M201.27,190.15h0a9.35,9.35,0,0,1-9.35-9.34v-1h18.69v1A9.34,9.34,0,0,1,201.27,190.15Z"/><path class="cls-3" d="M220,190.15h0a9.35,9.35,0,0,1-9.35-9.34v-1H229.3v1A9.34,9.34,0,0,1,220,190.15Z"/><path class="cls-56" d="M238.65,190.15h0a9.34,9.34,0,0,1-9.34-9.34v-1H248v1A9.35,9.35,0,0,1,238.65,190.15Z"/><path class="cls-3" d="M257.34,190.15h0a9.34,9.34,0,0,1-9.34-9.34v-1h18.69v1A9.34,9.34,0,0,1,257.34,190.15Z"/><path class="cls-56" d="M276,190.15h0a9.35,9.35,0,0,1-9.35-9.34v-1h18.69v1A9.34,9.34,0,0,1,276,190.15Z"/><path class="cls-3" d="M294.73,190.15h0a9.34,9.34,0,0,1-9.34-9.34v-1h18.69v1A9.35,9.35,0,0,1,294.73,190.15Z"/><path class="cls-56" d="M304.08,179.78h18.69a0,0,0,0,1,0,0v1a9.35,9.35,0,0,1-9.35,9.35h0a9.35,9.35,0,0,1-9.35-9.35v-1A0,0,0,0,1,304.08,179.78Z"/><path class="cls-3" d="M332.12,190.15h0a9.34,9.34,0,0,1-9.35-9.34v-1h18.69v1A9.34,9.34,0,0,1,332.12,190.15Z"/><rect class="cls-51" x="168.37" y="147.66" width="159.54" height="7.8"/><path class="cls-57" d="M90,131.87l-7-16a12.85,12.85,0,0,0-17-6.58h0a12.85,12.85,0,0,0-6.58,17l7,16"/><polygon class="cls-36" points="146.57 204.36 81.72 232.94 53.19 161.82 113.34 135.31 146.57 204.36"/><polygon class="cls-35" points="104.28 116.88 45.7 142.69 53.19 161.82 113.34 135.31 104.28 116.88"/><polygon class="cls-36" points="45.7 142.69 65.83 146.56 53.19 161.82 45.7 142.69"/><polygon class="cls-36" points="104.28 116.88 93.55 134.35 113.34 135.31 104.28 116.88"/><polygon class="cls-35" points="65.83 146.56 69.41 154.67 53.19 161.82 65.83 146.56"/><polygon class="cls-35" points="93.55 134.35 97.13 142.46 113.34 135.31 93.55 134.35"/><path class="cls-58" d="M98.26,150.7l-7-15.95a12.85,12.85,0,0,0-17-6.58h0a12.86,12.86,0,0,0-6.59,17l7,15.95"/><path class="cls-3" d="M105,187.52,91.33,193.6a1.69,1.69,0,0,1-1.94-.41l-7.8-8.64a1.68,1.68,0,0,1,.57-2.67L102.3,173a1.69,1.69,0,0,1,2.36,1.34L106,185.78A1.67,1.67,0,0,1,105,187.52Z"/><path class="cls-3" d="M107.62,190.1,92.13,197a.89.89,0,0,1-.72-1.62l15.49-6.87a1.83,1.83,0,0,0,1.07-1.89l-1.73-14.37a3.17,3.17,0,0,1,1.87-3.3l3.72-1.65a.89.89,0,1,1,.72,1.62l-3.72,1.65A1.42,1.42,0,0,0,108,172l1.73,14.37A3.6,3.6,0,0,1,107.62,190.1Z"/><path class="cls-3" d="M99.25,197.45a1.85,1.85,0,1,1-2.44-.94A1.86,1.86,0,0,1,99.25,197.45Z"/><path class="cls-3" d="M105.75,194.57a1.85,1.85,0,1,1-2.45-.94A1.85,1.85,0,0,1,105.75,194.57Z"/><circle class="cls-41" cx="401.13" cy="269.05" r="20.95" transform="translate(46.41 596.88) rotate(-76.6)"/><path class="cls-3" d="M401.13,248.1a21,21,0,0,0-20.95,21h20.95Z"/><circle class="cls-59" cx="401.13" cy="269.05" r="15.16" transform="translate(46.61 597.09) rotate(-76.63)"/><path class="cls-3" d="M405.75,263a1.42,1.42,0,0,1-1.84.27,3.89,3.89,0,0,0-2.3-.74c-1.43,0-2.2.57-2.2,1.91,0,2.83,7.85,2.59,7.85,8.27a5.44,5.44,0,0,1-3.68,5.44,1.44,1.44,0,0,0-1,1.35v.57a1.45,1.45,0,0,1-1.44,1.45h0a1.45,1.45,0,0,1-1.45-1.45v-.32a1.46,1.46,0,0,0-1.14-1.41,10.81,10.81,0,0,1-2.88-1.16,1.46,1.46,0,0,1-.48-2l.37-.57a1.44,1.44,0,0,1,1.92-.48,6,6,0,0,0,3.13,1c1.67,0,2.42-.68,2.42-2,0-3.07-7.86-3-7.86-8.36a5.25,5.25,0,0,1,3.54-5.23,1.46,1.46,0,0,0,1-1.37v-.53a1.44,1.44,0,0,1,1.45-1.44h0a1.44,1.44,0,0,1,1.44,1.44V258a1.46,1.46,0,0,0,1.06,1.39,6.9,6.9,0,0,1,2.25,1.18,1.44,1.44,0,0,1,.18,2.09Z"/><circle class="cls-41" cx="430.58" cy="302.94" r="11.68" transform="translate(-88.1 393.2) rotate(-45)"/><path class="cls-3" d="M430.58,291.26a11.68,11.68,0,0,0-11.68,11.68h11.68Z"/><circle class="cls-59" cx="430.58" cy="302.94" r="8.45" transform="translate(-88.1 393.2) rotate(-45)"/><path class="cls-3" d="M433.16,299.58a.79.79,0,0,1-1,.15,2.18,2.18,0,0,0-1.28-.4c-.8,0-1.23.31-1.23,1.06,0,1.57,4.38,1.44,4.38,4.61a3,3,0,0,1-2.05,3,.82.82,0,0,0-.54.76v.32a.8.8,0,0,1-.8.8h0a.8.8,0,0,1-.81-.8v-.19a.8.8,0,0,0-.63-.78,5.73,5.73,0,0,1-1.61-.65.81.81,0,0,1-.27-1.13l.21-.32a.79.79,0,0,1,1.07-.27,3.28,3.28,0,0,0,1.75.54c.93,0,1.34-.38,1.34-1.14,0-1.71-4.38-1.68-4.38-4.67a2.92,2.92,0,0,1,2-2.91.81.81,0,0,0,.55-.76v-.3a.81.81,0,0,1,.81-.81h0a.8.8,0,0,1,.8.81v.23a.82.82,0,0,0,.59.77,4.09,4.09,0,0,1,1.26.66.8.8,0,0,1,.1,1.16Z"/><text class="cls-60" transform="translate(349.54 236.71)">UP</text></g></g></svg>